<?xml version="1.0" encoding="UTF-8" standalone="no"?>
<svg
   xmlns:dc="http://purl.org/dc/elements/1.1/"
   xmlns:cc="http://creativecommons.org/ns#"
   xmlns:rdf="http://www.w3.org/1999/02/22-rdf-syntax-ns#"
   xmlns:svg="http://www.w3.org/2000/svg"
   xmlns="http://www.w3.org/2000/svg"
   xmlns:sodipodi="http://sodipodi.sourceforge.net/DTD/sodipodi-0.dtd"
   xmlns:inkscape="http://www.inkscape.org/namespaces/inkscape"
   version="1.1"
   id="svg2"
   xml:space="preserve"
   width="326.86667"
   height="326.86667"
   viewBox="0 0 326.86667 326.86667"
   sodipodi:docname="cmc-logo.eps"><metadata
     id="metadata8"><rdf:RDF><cc:Work
         rdf:about=""><dc:format>image/svg+xml</dc:format><dc:type
           rdf:resource="http://purl.org/dc/dcmitype/StillImage" /></cc:Work></rdf:RDF></metadata><defs
     id="defs6" /><sodipodi:namedview
     pagecolor="#ffffff"
     bordercolor="#666666"
     borderopacity="1"
     objecttolerance="10"
     gridtolerance="10"
     guidetolerance="10"
     inkscape:pageopacity="0"
     inkscape:pageshadow="2"
     inkscape:window-width="640"
     inkscape:window-height="480"
     id="namedview4" /><g
     id="g10"
     inkscape:groupmode="layer"
     inkscape:label="ink_ext_XXXXXX"
     transform="matrix(1.3333333,0,0,-1.3333333,0,326.86667)"><g
       id="g12"
       transform="scale(0.1)"><path
         d="m 764.531,1247.3 c 0.137,-0.01 0.278,-0.01 0.418,-0.02 -0.812,78 -1.351,153.77 -1.625,224.03 0,1.07 -2.011,1.19 -3.011,0.17 -59.458,-61 -107.625,-135.82 -142.266,-219.36 61.062,-2.09 115.539,-3.9 146.484,-4.82"
         style="fill:#960a2c;fill-opacity:1;fill-rule:nonzero;stroke:none"
         id="path14" /><path
         d="m 487.012,1175.24 -153.032,-6.36 c -29.843,-63.85 -48.941,-133.47 -55.058,-205.31 38.461,-1.582 101.801,-4.121 171.777,-6.73 0.828,76.36 13.598,149.84 36.313,218.4"
         style="fill:#960a2c;fill-opacity:1;fill-rule:nonzero;stroke:none"
         id="path16" /><path
         d="m 454.492,868.828 c -76.019,-2.789 -138.086,-5.078 -175.449,-6.437 6.672,-75.219 27.914,-146.039 61.051,-209.321 39.551,-1.23 102.308,-3.191 167.636,-5.218 -27.789,68.078 -45.816,142.48 -53.238,220.976"
         style="fill:#960a2c;fill-opacity:1;fill-rule:nonzero;stroke:none"
         id="path18" /><path
         d="M 544.48,571.488 397.672,565.039 C 476.195,467.27 587.984,398.109 717.938,374.879 646.621,426.469 588.27,493.422 544.48,571.488"
         style="fill:#960a2c;fill-opacity:1;fill-rule:nonzero;stroke:none"
         id="path20" /><path
         d="m 1435.98,2203.54 h -0.08 c 0,0 0.02,-0.01 0.04,-0.01 0.02,0 0.04,0.01 0.04,0.01"
         style="fill:#960a2c;fill-opacity:1;fill-rule:nonzero;stroke:none"
         id="path22" /><path
         d="m 555.742,953.051 c 83.699,-2.871 164.391,-5.262 213.535,-5.75 -1.464,79.049 -2.695,160.019 -3.648,239.559 l -173.563,-7.23 c -21.867,-71.64 -34.375,-148.08 -36.324,-226.579"
         style="fill:#960a2c;fill-opacity:1;fill-rule:nonzero;stroke:none"
         id="path24" /><path
         d="m 607.574,644.73 c 55.563,-1.718 104.781,-3.261 133.153,-4.16 9.964,-0.32 22.132,-0.73 36.019,-1.211 -2.336,73.993 -4.391,155.84 -6.16,241.129 -73.359,-2.718 -146.09,-5.398 -213.098,-7.867 5.641,-80.512 22.91,-157.211 50.086,-227.891"
         style="fill:#960a2c;fill-opacity:1;fill-rule:nonzero;stroke:none"
         id="path26" /><path
         d="m 680.535,1473.86 c 0.426,0.38 0.125,0.82 -0.445,0.66 -119.797,-34.12 -221.871,-112.24 -293.367,-214.35 37.957,-1.33 84.543,-2.97 132.418,-4.63 39.707,84.03 95,158.29 161.394,218.32"
         style="fill:#960a2c;fill-opacity:1;fill-rule:nonzero;stroke:none"
         id="path28" /><path
         d="m 2009.4,1248.78 v 770.2 c -57.72,-9.62 -133.79,-26.68 -209.71,-56.55 -217.4,-85.59 -321.35,-187.27 -329.39,-357.7 -3.97,-69.86 -10.3,-283.34 -14.96,-306.27 0,0 -1.55,-20.02 -19.34,-20.02 h -0.04 c -17.77,0 -19.33,20.02 -19.33,20.02 -4.67,22.93 -10.98,236.41 -14.96,306.27 -8.03,170.43 -112,272.11 -329.39,357.7 -76.925,30.27 -154.05,47.39 -212.026,56.94 -0.024,-48.23 -0.055,-107.79 -0.078,-180.46 -0.024,-75.99 -0.039,-166.28 -0.039,-272.91 147.213,-9.87 281.133,-67.72 386.103,-157.87 0.91,-0.79 1.83,-1.59 2.75,-2.38 2.32,-2.57 3.81,-5.96 3.81,-9.71 0,-2.83 -0.84,-5.46 -2.25,-7.69 -1.91,-3.02 -4.9,-5.24 -8.44,-6.21 -1.21,-0.33 -2.46,-0.56 -3.77,-0.56 -3.6,0 -6.84,1.36 -9.38,3.53 -0.35,0.32 -0.65,0.64 -1.02,0.91 -92.96,68.31 -191.77,94.56 -300.831,103.41 -5.101,0.41 -3.379,-2.45 -3.144,-2.66 75.449,-69.09 135.675,-155.59 175.415,-251.16 102.91,-3.75 187.34,-6.89 187.34,-6.89 0,0 7.35,2.05 10.2,-9.48 2.54,-10.24 -9.92,-10.67 -9.92,-10.67 l -174.37,-7.26 c 28.72,-80.53 43.1,-166.56 40.11,-253.439 -0.16,-4.742 -0.38,-9.473 -0.61,-14.18 99.83,-4.742 184.09,-9.14 201.92,-10.132 1.31,-0.079 2.3,-0.137 2.93,-0.18 5.45,-0.391 9.33,-5.238 9.33,-10.328 0,-5.461 -3.88,-9.789 -9.25,-10.301 -0.67,-0.02 -1.7,-0.09 -3.13,-0.172 -11.01,-0.629 -91.41,-3.726 -204.35,-7.988 -8.11,-95.781 -29.22,-185.918 -63.84,-266.781 84.54,-3.27 149.88,-5.84 149.88,-5.84 0.63,-0.02 13.84,-0.989 10.32,-9.469 -4.2,-10.148 -10.23,-10.641 -11.01,-10.68 l -164.45,-7.23 c -28.5,-58.008 -69.59,-123.168 -113.312,-168.942 -1.375,-1.449 -5.648,-5.316 -10.566,-6.027 -4.825,-0.691 -18.442,-4.07 -22.305,-2.902 -1.027,0.312 -1.387,1.09 -0.508,2.48 1.621,2.59 4.512,6.789 6.301,9.36 29.441,42.39 70.13,114.652 91.55,163.882 l -173.863,-7.632 c -2.742,-83.809 -5.964,-154.18 -9.718,-204.61 -0.227,-3.09 2.015,-13.578 11,-13.211 188.511,7.442 318.441,77.422 426.781,194.141 20.9,22.531 121.8,148.281 132.06,319.051 l 6.13,196.55 c 0,13.99 7.75,25.5 21.87,25.5 14.12,0 21.86,-11.51 21.86,-25.65 l 4.26,-142.361 c 0.07,-1.258 0.21,-5.239 2.63,-1.09 146.72,250.211 500.22,309.401 544.75,315.651"
         style="fill:#960a2c;fill-opacity:1;fill-rule:nonzero;stroke:none"
         id="path30" /><path
         d="m 2246.68,1008.85 c 0,0 -527.28,66.62 -778.37,-258.241 l 15.17,-496.57 c 0,-30.109 -27.5,-30.109 -47.58,-30.109 -20.07,0 -47.57,0 -47.57,29.961 l 11.6,371.769 c -9.18,-15.328 -51.6,-85.191 -90.63,-131.172 -53.59,-61.328 -117.24,-113.59 -187.85,-153.136 -92.44,-51.801 -196.841,-81.821 -306.399,-81.821 -364.082,0 -659.235,292.789 -659.235,653.989 0,294.76 196.571,543.94 466.75,625.64 v 448.31 c 31.664,0 49.176,17.8 62.954,42.88 2.832,5.16 9.714,3.58 9.714,0 0,-6.84 0,-349.79 0,-472.62 19.977,3.61 48.707,6.25 67.911,7.74 0,103.28 0,194.59 0,273.44 0,75.68 0,139.85 0,192.01 v 103.88 c 0,0 38.968,-3.66 97.191,-14.39 66.227,-12.21 157.344,-33.57 244.354,-69.08 226.9,-92.61 288.81,-195.4 331.27,-243.19 h 0.04 c 42.48,47.79 104.4,150.58 331.29,243.19 86.04,35.11 176.07,56.38 242.11,68.66 50.72,9.44 87.27,13.56 96.89,14.56 v -965.92 c -17.14,-1.22 -398.86,-9.39 -589.88,-260.892 -16.74,-21.547 -23.12,-29.179 -20.02,-32.5 1.19,-1.297 2.81,-1.207 8.54,4.043 2.28,1.867 112.61,130.209 371.77,194.059 155.39,38.27 273.07,34.75 297.33,32.15 0,0 0,919.24 0,926.08 0,3.59 6.87,5.16 9.71,0 13.78,-25.08 31.28,-42.87 62.94,-42.87 z m -915.35,1017.58 v 0.01 c 0.39,7.82 6.62,14.09 17.03,14.09 0.38,0 174.75,0 175.12,0 10.41,0 16.64,-6.27 17.05,-14.09 v -0.01 c 0,-0.01 0,-0.03 0,-0.04 0,-0.17 -0.06,-1.84 -0.17,-2.5 -1.74,-15.46 -19.38,-30.1 -52.02,-59.25 -25.17,-25.21 -48.18,-53.16 -51.89,-57.71 -0.35,-0.42 -0.7,-0.41 -1.05,0.02 -3.77,4.61 -26.74,32.52 -51.9,57.69 -32.64,29.15 -50.25,43.79 -51.99,59.25 -0.12,0.66 -0.18,2.33 -0.18,2.5 0,0.01 0,0.03 0,0.04 z m 104.61,233.35 c 0,0 85.92,-99.3 85.92,-140.85 0,-32.02 -28.57,-30.19 -28.57,-30.19 l -115.79,0.01 c 0,0 -27.67,-0.32 -27.67,30.18 0,41.55 86.11,140.85 86.11,140.85 z m 973.23,191.71 H 42.3438 C 19.0508,2451.49 0,2432.44 0,2409.15 V 42.3203 C 0,19.0391 19.0508,0 42.3438,0 H 2409.17 c 23.28,0 42.32,19.0391 42.32,42.3203 V 2409.15 c 0,23.29 -19.04,42.34 -42.32,42.34"
         style="fill:#960a2c;fill-opacity:1;fill-rule:nonzero;stroke:none"
         id="path32" /><path
         d="m 638.242,575.609 c 38.082,-75.16 88.09,-141.64 147.535,-196.25 1.016,-0.937 2.844,-0.148 2.758,1.2 -3.633,49.613 -6.933,119.101 -9.863,201.222 l -140.43,-6.172"
         style="fill:#960a2c;fill-opacity:1;fill-rule:nonzero;stroke:none"
         id="path34" /><path
         d="m 860.953,1472.86 c -0.703,0.73 -0.914,0.58 -0.918,-0.03 -0.152,-74.7 -0.492,-151.6 -1.055,-228.64 47.946,-1.66 104.583,-3.67 160.69,-5.69 -36.897,89.7 -97.111,170.52 -158.717,234.36"
         style="fill:#960a2c;fill-opacity:1;fill-rule:nonzero;stroke:none"
         id="path36" /><path
         d="m 1035.14,1198.08 -176.566,-7.36 c -0.699,-82.9 -1.621,-165.37 -2.781,-244.841 63.012,-1.84 148.027,-5.367 230.167,-9.117 -3.57,89.388 -21.4,178.458 -50.82,261.318"
         style="fill:#960a2c;fill-opacity:1;fill-rule:nonzero;stroke:none"
         id="path38" /><path
         d="m 1086.15,875.801 c 0.19,5.469 0.3,10.961 0.38,16.429 -70.95,-2.66 -150.518,-5.621 -231.725,-8.64 -1.485,-88.352 -3.278,-171.91 -5.43,-246.828 57.324,-2.114 124.883,-4.672 187.345,-7.071 28.7,76.321 46.45,159.161 49.43,246.11"
         style="fill:#960a2c;fill-opacity:1;fill-rule:nonzero;stroke:none"
         id="path40" /></g></g></svg>
