<svg id="Layer_2" data-name="Layer 2" xmlns="http://www.w3.org/2000/svg" viewBox="0 0 305.86 60.28"><defs><style>.cls-1{fill:#000000;}</style></defs><title>FLEXFIT_WhiteLogo</title><path class="cls-1" d="M295,9.41l-.35,1.15-.13.46c-1.81,5.81-8.17,5.81-10.88,5.81h-7.37l-6.07,19.88c-1.44,4.69-3.52,7.23-10.34,7.23h-3.61l.36-1.16c.59-1.89,7.5-24.4,8-25.95H247.83l.36-1.16c1.37-4.39,4.31-6.26,9.8-6.26h37Zm-59.79,0c4.27,0,7.25,1.34,8.12,3.69a4.47,4.47,0,0,1,.28,2,7,7,0,0,1-.33,1.65s-7.85,25.59-8.15,26.59l-.2.64H233.4c-3.88,0-6.88-1.52-7.83-4a4.4,4.4,0,0,1-.29-2,5.39,5.39,0,0,1,.24-1.28S233.4,11.05,233.7,10l.2-.63h1.3Zm-5.14,0-.51,1.24A8.79,8.79,0,0,1,225.94,15c-2.44,1.34-4.9,1.81-9.37,1.81H198.71L196.83,23h23.29l-.75,1.34A11.67,11.67,0,0,1,215,28.63a17.6,17.6,0,0,1-7.64,1.8H194.54l-1.65,5.4c-1.1,3.41-2.56,5.4-4.9,6.65a17.52,17.52,0,0,1-7.71,1.46h-1.54l.36-1.17c.61-1.94,7.93-25.78,8-26,2.26-7.34,8.57-7.34,12.33-7.34h30.62Zm-44,0L184.27,11c-2.73,2.44-17.11,15.26-17.54,15.63h0a.15.15,0,0,0,0,.06c0,.08,0,.11,0,.11s6.85,13.62,8,15.88l.65,1.29H162.75l-.24-.49c-.23-.43-3.92-7.52-5-9.51l-7.31,6.61a12.74,12.74,0,0,1-8,3.39h-7.08L137,42.38c2.71-2.44,15.81-15.9,15.94-16v-.09l0-.07s0,0,0-.05S146.15,12.94,145,10.7l-.67-1.29h8.81a7.29,7.29,0,0,1,6,3.73L162.17,19l7.15-6.08a13.86,13.86,0,0,1,8-3.5H186Zm-52.37,0c4.22,0,7.17,1.36,8.1,3.71a4.59,4.59,0,0,1,.28,2.05,5.49,5.49,0,0,1-.14.81l0,.15-.15.7H108.9L107,23H139.9l-.63,1.28c-1.93,4-6.94,6.14-14.1,6.14H104.73l-2,6.32h32.89L135,38c-1.77,3.76-6.09,5.92-11.82,5.92H99.13c-3.93,0-7-1.52-7.9-4a4.91,4.91,0,0,1,0-3.24l6.13-20.09c1.24-4,6.7-7.23,12.19-7.23Zm-70.19,0c4.28,0,7.24,1.34,8.13,3.69a5.25,5.25,0,0,1-.06,3.62l-6.18,20H88.12l-.68,1.3c-2,3.8-6.26,5.89-12,5.89H62c-4.37,0-7.4-1.35-8.29-3.69a4.41,4.41,0,0,1-.26-1.9,6.91,6.91,0,0,1,.32-1.62c.09-.26,7.89-25.68,8.2-26.69l.19-.63h1.29Zm-5.12,0-.53,1.24A8.67,8.67,0,0,1,54.2,15c-2.43,1.34-4.89,1.81-9.36,1.81H27L25.09,23H48.38l-.74,1.34a11.52,11.52,0,0,1-4.33,4.28,17.63,17.63,0,0,1-7.64,1.8H22.82l-1.66,5.4c-1.11,3.46-2.53,5.39-4.91,6.65a17.46,17.46,0,0,1-7.69,1.46H7l.34-1.15c.6-2,8-26,8-26C17.64,9.41,24,9.41,27.72,9.41H58.35Z"/><path class="cls-1" d="M288.23,44.3a6.43,6.43,0,1,1,6.43-6.43A6.37,6.37,0,0,1,288.23,44.3Zm0-12a5.62,5.62,0,1,0,5.55,5.61A5.5,5.5,0,0,0,288.23,32.26Zm2.18,9.2-2.4-3h-1.09v2.93h-1V34.12h.54c.15,0,1.38-.06,1.72-.06,1.53,0,2.5.74,2.5,2.07a2,2,0,0,1-1.59,2v.06l2.48,3.07Zm-3.49-3.94h1c1.13,0,1.67-.46,1.67-1.29S289,35,287.93,35c-.32,0-.85,0-1,0Z"/></svg>